<?xml version="1.0" standalone="no"?>
<svg xmlns="http://www.w3.org/2000/svg" viewBox="0 0 88.972 29" width="88.972" height="29"><g fill="#fe4e01" color="#fe4e01" transform="translate(0, 0) scale(0.5686275)"><svg width="44.0" height="51.0" x="0.0" y="0.0" viewBox="0 0 44 51"><path fill="currentColor" fill-rule="evenodd" d="M22 0L0 12.571v25.143l22 12.572 21.994-12.568.006-.01V12.571L22 0zM6.354 13.778L22 4.84l15.645 8.938-4.231 2.419L22 9.678l-11.411 6.52-4.235-2.42zm17.764 10.158v-8.21L31.3 19.83v8.208l-7.182-4.101zm-11.416-4.107l7.18-4.102v8.207l-7.18 4.103v-8.208zm11.416 19.57l11.415-6.522V19.826l4.233-2.42v17.89l-15.648 8.941v-4.838zM4.233 35.296v-17.89l4.233 2.42v13.049l11.416 6.524v4.838l-15.649-8.94zm10.583-3.63l7.182-4.104 7.183 4.104L22 35.768l-7.184-4.102z"></path></svg></g><line x1="37.02" y1="1" x2="37.02" y2="28" stroke="#fe4e01" stroke-linecap="round"></line><path fill="#fe4e01" fill-rule="nonzero" d="M12.84 12.19L12.84 12.19Q12.84 14.62 11.06 16.00Q9.29 17.38 6.53 17.38L6.53 17.38Q4.34 17.38 2.30 16.18L2.30 16.18Q1.30 15.55 0.65 14.41Q0 13.27 0 11.81L0 11.81L3.02 11.66Q3.02 12.96 4.13 13.68Q5.23 14.40 6.58 14.40L6.58 14.40Q9.58 14.40 9.58 12.29L9.58 12.29Q9.58 10.56 7.54 10.25L7.54 10.25L4.75 9.96Q2.66 9.65 1.44 8.47Q0.22 7.30 0.22 5.09Q0.22 2.88 1.97 1.44Q3.72 0 6.40 0Q9.07 0 10.70 1.36Q12.34 2.71 12.34 4.85L12.34 4.85L9.36 4.99Q8.95 2.90 6.55 2.90L6.55 2.90Q5.09 2.90 4.26 3.53Q3.43 4.15 3.43 5.00Q3.43 5.86 4.03 6.35Q4.63 6.84 5.52 6.96L5.52 6.96L8.26 7.25Q12.84 7.87 12.84 12.19ZM24.14 10.61L24.14 10.61L27.24 10.61Q27.24 13.87 25.61 15.62Q23.98 17.38 21 17.38L21 17.38Q14.45 17.38 14.45 9.67L14.45 9.67L14.45 8.23Q14.45 2.16 17.81 0.62L17.81 0.62Q19.13 0 21 0L21 0Q23.74 0 25.45 1.50Q27.17 3.00 27.17 5.83L27.17 5.83L24.05 5.83Q23.78 4.42 23.11 3.70Q22.44 2.98 21 2.98L21 2.98Q19.32 2.98 18.50 4.03L18.50 4.03Q17.93 4.78 17.83 6.58L17.83 6.58Q17.78 7.15 17.78 8.14L17.78 8.14L17.78 9.62Q17.78 12.38 18.55 13.39L18.55 13.39Q19.34 14.40 21.01 14.40Q22.68 14.40 23.32 13.48Q23.95 12.55 24.14 10.61ZM38.47 0.14L41.95 0.14L36.58 16.27Q36.14 17.38 35.04 17.38L35.04 17.38Q33.89 17.38 33.46 16.27L33.46 16.27L28.15 0.14L31.61 0.14L35.04 11.28L38.47 0.14Z" transform="translate(47.02, 5.813)"></path></svg>